<svg width="1920" height="1080" viewBox="0 0 1920 1080" xmlns="http://www.w3.org/2000/svg">
  <defs>
    <!-- Define patterns and gradients -->
    <pattern id="dots" x="0" y="0" width="100" height="100" patternUnits="userSpaceOnUse">
      <circle cx="50" cy="50" r="0.5" fill="rgba(255,255,255,0.1)"/>
      <circle cx="25" cy="25" r="0.3" fill="rgba(255,255,255,0.05)"/>
      <circle cx="75" cy="25" r="0.3" fill="rgba(255,255,255,0.05)"/>
      <circle cx="25" cy="75" r="0.3" fill="rgba(255,255,255,0.05)"/>
      <circle cx="75" cy="75" r="0.3" fill="rgba(255,255,255,0.05)"/>
    </pattern>
    
    <!-- Subtle red glow filter -->
    <filter id="redGlow">
      <feGaussianBlur stdDeviation="2" result="coloredBlur"/>
      <feMerge>
        <feMergeNode in="coloredBlur"/>
        <feMergeNode in="SourceGraphic"/>
      </feMerge>
    </filter>
  </defs>
  
  <!-- Pure black background -->
  <rect width="100%" height="100%" fill="#000000"/>
  
  <!-- Dot pattern overlay -->
  <rect width="100%" height="100%" fill="url(#dots)" opacity="0.4"/>
  
  <!-- Abstract polygon structures - representing code transformation -->
  <!-- Top left cluster -->
  <g opacity="0.8" filter="url(#redGlow)">
    <polygon points="200,150 250,120 300,160 280,200 220,190" fill="none" stroke="rgba(239,68,68,0.3)" stroke-width="1"/>
    <polygon points="180,180 230,150 280,190 260,230 200,220" fill="none" stroke="rgba(239,68,68,0.2)" stroke-width="0.5"/>
    <circle cx="240" cy="170" r="2" fill="rgba(239,68,68,0.6)"/>
    <circle cx="210" cy="160" r="1.5" fill="rgba(239,68,68,0.4)"/>
    <circle cx="270" cy="185" r="1" fill="rgba(239,68,68,0.3)"/>
  </g>
  
  <!-- Center holographic projection -->
  <g opacity="0.6" transform="translate(960,540)">
    <!-- Main holographic frame -->
    <polygon points="-150,-80 150,-80 180,-50 180,50 150,80 -150,80 -180,50 -180,-50" 
             fill="none" stroke="rgba(239,68,68,0.4)" stroke-width="1.5"/>
    
    <!-- Inner geometric patterns -->
    <polygon points="-100,-40 0,-60 100,-40 120,0 100,40 0,60 -100,40 -120,0" 
             fill="none" stroke="rgba(239,68,68,0.25)" stroke-width="1"/>
    
    <!-- Data points -->
    <circle cx="-80" cy="-30" r="1.5" fill="rgba(239,68,68,0.5)"/>
    <circle cx="0" cy="-45" r="2" fill="rgba(239,68,68,0.6)"/>
    <circle cx="80" cy="-30" r="1.5" fill="rgba(239,68,68,0.5)"/>
    <circle cx="90" cy="0" r="1" fill="rgba(239,68,68,0.4)"/>
    <circle cx="80" cy="30" r="1.5" fill="rgba(239,68,68,0.5)"/>
    <circle cx="0" cy="45" r="2" fill="rgba(239,68,68,0.6)"/>
    <circle cx="-80" cy="30" r="1.5" fill="rgba(239,68,68,0.5)"/>
    <circle cx="-90" cy="0" r="1" fill="rgba(239,68,68,0.4)"/>
    
    <!-- Connection lines -->
    <line x1="-80" y1="-30" x2="0" y2="-45" stroke="rgba(239,68,68,0.2)" stroke-width="0.5"/>
    <line x1="0" y1="-45" x2="80" y2="-30" stroke="rgba(239,68,68,0.2)" stroke-width="0.5"/>
    <line x1="80" y1="-30" x2="90" y2="0" stroke="rgba(239,68,68,0.2)" stroke-width="0.5"/>
    <line x1="90" y1="0" x2="80" y2="30" stroke="rgba(239,68,68,0.2)" stroke-width="0.5"/>
    <line x1="80" y1="30" x2="0" y2="45" stroke="rgba(239,68,68,0.2)" stroke-width="0.5"/>
    <line x1="0" y1="45" x2="-80" y2="30" stroke="rgba(239,68,68,0.2)" stroke-width="0.5"/>
    <line x1="-80" y1="30" x2="-90" y2="0" stroke="rgba(239,68,68,0.2)" stroke-width="0.5"/>
    <line x1="-90" y1="0" x2="-80" y2="-30" stroke="rgba(239,68,68,0.2)" stroke-width="0.5"/>
  </g>
  
  <!-- Top right emerging code structures -->
  <g opacity="0.7" transform="translate(1500,200)">
    <polygon points="0,0 40,-20 80,0 100,40 80,80 40,100 0,80 -20,40" 
             fill="none" stroke="rgba(239,68,68,0.3)" stroke-width="1"/>
    <polygon points="20,20 60,0 100,20 120,60 100,100 60,120 20,100 0,60" 
             fill="none" stroke="rgba(239,68,68,0.2)" stroke-width="0.5"/>
    
    <!-- Small data points -->
    <circle cx="40" cy="20" r="1" fill="rgba(239,68,68,0.4)"/>
    <circle cx="60" cy="40" r="1.5" fill="rgba(239,68,68,0.5)"/>
    <circle cx="40" cy="60" r="1" fill="rgba(239,68,68,0.4)"/>
    <circle cx="20" cy="40" r="1" fill="rgba(239,68,68,0.3)"/>
  </g>
  
  <!-- Bottom left analysis cluster -->
  <g opacity="0.6" transform="translate(300,800)">
    <polygon points="0,0 60,-30 120,0 150,60 120,120 60,150 0,120 -30,60" 
             fill="none" stroke="rgba(239,68,68,0.25)" stroke-width="1"/>
    
    <!-- Inner analysis grid -->
    <line x1="20" y1="20" x2="100" y2="20" stroke="rgba(239,68,68,0.15)" stroke-width="0.5"/>
    <line x1="20" y1="40" x2="100" y2="40" stroke="rgba(239,68,68,0.15)" stroke-width="0.5"/>
    <line x1="20" y1="60" x2="100" y2="60" stroke="rgba(239,68,68,0.15)" stroke-width="0.5"/>
    <line x1="20" y1="80" x2="100" y2="80" stroke="rgba(239,68,68,0.15)" stroke-width="0.5"/>
    <line x1="20" y1="100" x2="100" y2="100" stroke="rgba(239,68,68,0.15)" stroke-width="0.5"/>
    
    <line x1="20" y1="20" x2="20" y2="100" stroke="rgba(239,68,68,0.15)" stroke-width="0.5"/>
    <line x1="40" y1="20" x2="40" y2="100" stroke="rgba(239,68,68,0.15)" stroke-width="0.5"/>
    <line x1="60" y1="20" x2="60" y2="100" stroke="rgba(239,68,68,0.15)" stroke-width="0.5"/>
    <line x1="80" y1="20" x2="80" y2="100" stroke="rgba(239,68,68,0.15)" stroke-width="0.5"/>
    <line x1="100" y1="20" x2="100" y2="100" stroke="rgba(239,68,68,0.15)" stroke-width="0.5"/>
    
    <!-- Data visualization points -->
    <circle cx="30" cy="30" r="1" fill="rgba(239,68,68,0.4)"/>
    <circle cx="50" cy="25" r="1.5" fill="rgba(239,68,68,0.5)"/>
    <circle cx="70" cy="35" r="1" fill="rgba(239,68,68,0.4)"/>
    <circle cx="90" cy="30" r="1" fill="rgba(239,68,68,0.3)"/>
  </g>
  
  <!-- Bottom right transformation elements -->
  <g opacity="0.5" transform="translate(1400,850)">
    <!-- Pill-like emerging structure -->
    <ellipse cx="100" cy="50" rx="80" ry="30" fill="none" stroke="rgba(239,68,68,0.2)" stroke-width="1"/>
    <ellipse cx="100" cy="50" rx="60" ry="20" fill="none" stroke="rgba(239,68,68,0.15)" stroke-width="0.5"/>
    
    <!-- Emerging particles -->
    <circle cx="60" cy="40" r="0.5" fill="rgba(239,68,68,0.3)"/>
    <circle cx="80" cy="35" r="1" fill="rgba(239,68,68,0.4)"/>
    <circle cx="100" cy="30" r="1.5" fill="rgba(239,68,68,0.5)"/>
    <circle cx="120" cy="35" r="1" fill="rgba(239,68,68,0.4)"/>
    <circle cx="140" cy="40" r="0.5" fill="rgba(239,68,68,0.3)"/>
    
    <circle cx="70" cy="60" r="0.5" fill="rgba(239,68,68,0.3)"/>
    <circle cx="90" cy="65" r="1" fill="rgba(239,68,68,0.4)"/>
    <circle cx="110" cy="65" r="1" fill="rgba(239,68,68,0.4)"/>
    <circle cx="130" cy="60" r="0.5" fill="rgba(239,68,68,0.3)"/>
  </g>
  
  <!-- Floating Code Pills - Top Area -->
  <g opacity="0.7" transform="translate(400,100)">
    <!-- Pill 1 -->
    <ellipse cx="0" cy="0" rx="40" ry="15" fill="none" stroke="rgba(239,68,68,0.4)" stroke-width="1"/>
    <ellipse cx="0" cy="0" rx="30" ry="10" fill="none" stroke="rgba(239,68,68,0.2)" stroke-width="0.5"/>
    <circle cx="-20" cy="-5" r="0.8" fill="rgba(255,255,255,0.6)"/>
    <circle cx="0" cy="0" r="1" fill="rgba(255,255,255,0.7)"/>
    <circle cx="20" cy="5" r="0.8" fill="rgba(255,255,255,0.6)"/>
    
    <!-- Connecting lines from pill -->
    <line x1="-40" y1="0" x2="-60" y2="-20" stroke="rgba(239,68,68,0.2)" stroke-width="0.5"/>
    <line x1="40" y1="0" x2="60" y2="20" stroke="rgba(239,68,68,0.2)" stroke-width="0.5"/>
  </g>
  
  <!-- Floating Code Pills - Mid Right -->
  <g opacity="0.6" transform="translate(1300,350)">
    <!-- Pill 2 -->
    <ellipse cx="0" cy="0" rx="35" ry="12" fill="none" stroke="rgba(239,68,68,0.3)" stroke-width="1"/>
    <circle cx="-15" cy="0" r="0.7" fill="rgba(255,255,255,0.5)"/>
    <circle cx="0" cy="0" r="0.9" fill="rgba(255,255,255,0.6)"/>
    <circle cx="15" cy="0" r="0.7" fill="rgba(255,255,255,0.5)"/>
    
    <!-- Transformation lines -->
    <path d="M -35,0 Q -50,-20 -70,-15" fill="none" stroke="rgba(239,68,68,0.15)" stroke-width="0.5"/>
    <path d="M 35,0 Q 50,20 70,15" fill="none" stroke="rgba(239,68,68,0.15)" stroke-width="0.5"/>
  </g>
  
  <!-- Floating Code Pills - Bottom Left -->
  <g opacity="0.5" transform="translate(150,700)">
    <!-- Pill 3 -->
    <ellipse cx="0" cy="0" rx="45" ry="18" fill="none" stroke="rgba(239,68,68,0.25)" stroke-width="1"/>
    <ellipse cx="0" cy="0" rx="25" ry="8" fill="none" stroke="rgba(239,68,68,0.15)" stroke-width="0.5"/>
    <circle cx="-25" cy="-8" r="0.6" fill="rgba(255,255,255,0.4)"/>
    <circle cx="0" cy="0" r="1.2" fill="rgba(255,255,255,0.6)"/>
    <circle cx="25" cy="8" r="0.6" fill="rgba(255,255,255,0.4)"/>
  </g>
  
  <!-- 3D Holographic Artifact - Top Right -->
  <g opacity="0.8" transform="translate(1600,150)">
    <!-- Main 3D structure -->
    <polygon points="0,0 30,-15 60,0 30,15" fill="none" stroke="rgba(239,68,68,0.4)" stroke-width="1"/>
    <polygon points="0,0 15,-30 45,-45 30,-15" fill="none" stroke="rgba(239,68,68,0.3)" stroke-width="0.8"/>
    <polygon points="30,-15 45,-45 75,-30 60,0" fill="none" stroke="rgba(239,68,68,0.3)" stroke-width="0.8"/>
    
    <!-- Internal polygon mesh -->
    <line x1="15" y1="-7.5" x2="45" y2="-22.5" stroke="rgba(239,68,68,0.2)" stroke-width="0.3"/>
    <line x1="30" y1="0" x2="60" y2="-15" stroke="rgba(239,68,68,0.2)" stroke-width="0.3"/>
    
    <!-- Data points -->
    <circle cx="15" cy="-7.5" r="1" fill="rgba(255,255,255,0.5)"/>
    <circle cx="30" cy="0" r="1.2" fill="rgba(255,255,255,0.6)"/>
    <circle cx="45" cy="-22.5" r="0.8" fill="rgba(255,255,255,0.4)"/>
  </g>
  
  <!-- Emerging Code Artifacts - Mid Left -->
  <g opacity="0.6" transform="translate(300,450)">
    <!-- Code block transformation -->
    <rect x="0" y="0" width="60" height="40" fill="none" stroke="rgba(239,68,68,0.3)" stroke-width="1"/>
    <rect x="10" y="10" width="40" height="20" fill="none" stroke="rgba(239,68,68,0.2)" stroke-width="0.5"/>
    
    <!-- Code lines -->
    <line x1="15" y1="15" x2="45" y2="15" stroke="rgba(255,255,255,0.3)" stroke-width="0.5"/>
    <line x1="15" y1="20" x2="35" y2="20" stroke="rgba(255,255,255,0.25)" stroke-width="0.5"/>
    <line x1="15" y1="25" x2="40" y2="25" stroke="rgba(255,255,255,0.3)" stroke-width="0.5"/>
    
    <!-- Emerging particles -->
    <circle cx="65" cy="5" r="0.5" fill="rgba(239,68,68,0.4)"/>
    <circle cx="70" cy="10" r="0.7" fill="rgba(239,68,68,0.5)"/>
    <circle cx="75" cy="15" r="0.5" fill="rgba(239,68,68,0.4)"/>
    
    <!-- Connection lines -->
    <line x1="60" y1="20" x2="65" y2="5" stroke="rgba(239,68,68,0.2)" stroke-width="0.3"/>
    <line x1="60" y1="20" x2="70" y2="10" stroke="rgba(239,68,68,0.2)" stroke-width="0.3"/>
    <line x1="60" y1="20" x2="75" y2="15" stroke="rgba(239,68,68,0.2)" stroke-width="0.3"/>
  </g>
  
  <!-- 3D Holographic Projection - Bottom Center -->
  <g opacity="0.7" transform="translate(800,750)">
    <!-- Holographic display frame -->
    <polygon points="-80,-40 80,-40 100,-20 100,20 80,40 -80,40 -100,20 -100,-20" 
             fill="none" stroke="rgba(239,68,68,0.3)" stroke-width="1.2"/>
    
    <!-- Inner 3D mesh -->
    <polygon points="-50,-25 0,-35 50,-25 60,0 50,25 0,35 -50,25 -60,0" 
             fill="none" stroke="rgba(239,68,68,0.25)" stroke-width="0.8"/>
    
    <!-- 3D projection lines -->
    <line x1="-50" y1="-25" x2="-40" y2="-35" stroke="rgba(239,68,68,0.15)" stroke-width="0.5"/>
    <line x1="0" y1="-35" x2="10" y2="-45" stroke="rgba(239,68,68,0.15)" stroke-width="0.5"/>
    <line x1="50" y1="-25" x2="60" y2="-35" stroke="rgba(239,68,68,0.15)" stroke-width="0.5"/>
    <line x1="60" y1="0" x2="70" y2="-10" stroke="rgba(239,68,68,0.15)" stroke-width="0.5"/>
    
    <!-- Data visualization points -->
    <circle cx="-25" cy="-12" r="1" fill="rgba(255,255,255,0.5)"/>
    <circle cx="0" cy="-18" r="1.3" fill="rgba(255,255,255,0.6)"/>
    <circle cx="25" cy="-12" r="1" fill="rgba(255,255,255,0.5)"/>
    <circle cx="30" cy="0" r="0.8" fill="rgba(255,255,255,0.4)"/>
    <circle cx="25" cy="12" r="1" fill="rgba(255,255,255,0.5)"/>
    <circle cx="0" cy="18" r="1.3" fill="rgba(255,255,255,0.6)"/>
    <circle cx="-25" cy="12" r="1" fill="rgba(255,255,255,0.5)"/>
    <circle cx="-30" cy="0" r="0.8" fill="rgba(255,255,255,0.4)"/>
  </g>
  
  <!-- Floating Analysis Artifacts - Far Right -->
  <g opacity="0.5" transform="translate(1700,500)">
    <!-- Analysis cube -->
    <polygon points="0,0 20,-10 40,0 20,10" fill="none" stroke="rgba(239,68,68,0.3)" stroke-width="0.8"/>
    <polygon points="0,0 10,-20 30,-30 20,-10" fill="none" stroke="rgba(239,68,68,0.25)" stroke-width="0.6"/>
    <polygon points="20,-10 30,-30 50,-20 40,0" fill="none" stroke="rgba(239,68,68,0.25)" stroke-width="0.6"/>
    
    <!-- Internal structure -->
    <line x1="10" y1="-5" x2="30" y2="-15" stroke="rgba(239,68,68,0.15)" stroke-width="0.4"/>
    <line x1="20" y1="0" x2="40" y2="-10" stroke="rgba(239,68,68,0.15)" stroke-width="0.4"/>
    
    <!-- Analysis points -->
    <circle cx="10" cy="-5" r="0.6" fill="rgba(255,255,255,0.4)"/>
    <circle cx="20" cy="0" r="0.8" fill="rgba(255,255,255,0.5)"/>
    <circle cx="30" cy="-15" r="0.6" fill="rgba(255,255,255,0.4)"/>
  </g>
  
  <!-- Transforming Code Stream - Left Side -->
  <g opacity="0.4" transform="translate(50,300)">
    <!-- Stream path -->
    <path d="M 0,0 Q 30,-20 60,0 Q 90,20 120,0 Q 150,-15 180,5" 
          fill="none" stroke="rgba(239,68,68,0.2)" stroke-width="1"/>
    
    <!-- Code particles along stream -->
    <circle cx="15" cy="-5" r="0.4" fill="rgba(255,255,255,0.3)"/>
    <circle cx="45" cy="-8" r="0.6" fill="rgba(255,255,255,0.4)"/>
    <circle cx="75" cy="8" r="0.5" fill="rgba(255,255,255,0.35)"/>
    <circle cx="105" cy="10" r="0.7" fill="rgba(255,255,255,0.45)"/>
    <circle cx="135" cy="-5" r="0.5" fill="rgba(255,255,255,0.35)"/>
    <circle cx="165" cy="0" r="0.8" fill="rgba(255,255,255,0.5)"/>
    
    <!-- Transformation indicators -->
    <polygon points="40,-15 50,-20 60,-15 50,-10" fill="none" stroke="rgba(239,68,68,0.15)" stroke-width="0.4"/>
    <polygon points="100,5 110,0 120,5 110,10" fill="none" stroke="rgba(239,68,68,0.15)" stroke-width="0.4"/>
  </g>
  
  <!-- Additional Scattered Artifacts -->
  <g opacity="0.3">
    <!-- Top area artifacts -->
    <circle cx="600" cy="80" r="0.5" fill="rgba(255,255,255,0.3)"/>
    <circle cx="950" cy="120" r="0.7" fill="rgba(255,255,255,0.4)"/>
    <circle cx="1100" cy="90" r="0.4" fill="rgba(255,255,255,0.25)"/>
    
    <!-- Mid area artifacts -->
    <circle cx="200" cy="550" r="0.6" fill="rgba(255,255,255,0.35)"/>
    <circle cx="1450" cy="600" r="0.8" fill="rgba(255,255,255,0.45)"/>
    <circle cx="700" cy="400" r="0.5" fill="rgba(255,255,255,0.3)"/>
    <circle cx="1200" cy="650" r="0.4" fill="rgba(255,255,255,0.25)"/>
    
    <!-- Bottom area artifacts -->
    <circle cx="500" cy="950" r="0.7" fill="rgba(255,255,255,0.4)"/>
    <circle cx="1350" cy="900" r="0.5" fill="rgba(255,255,255,0.3)"/>
    <circle cx="100" cy="850" r="0.6" fill="rgba(255,255,255,0.35)"/>
    <circle cx="1750" cy="950" r="0.4" fill="rgba(255,255,255,0.25)"/>
    
    <!-- Extra scattered points -->
    <circle cx="1600" cy="300" r="0.3" fill="rgba(255,255,255,0.2)"/>
    <circle cx="350" cy="750" r="0.5" fill="rgba(255,255,255,0.3)"/>
    <circle cx="1050" cy="200" r="0.4" fill="rgba(255,255,255,0.25)"/>
    <circle cx="750" cy="850" r="0.6" fill="rgba(255,255,255,0.35)"/>
  </g>
</svg>
